<?xml version="1.0" encoding="UTF-8" standalone="no"?><!DOCTYPE svg PUBLIC "-//W3C//DTD SVG 1.1//EN" "http://www.w3.org/Graphics/SVG/1.1/DTD/svg11.dtd"><svg width="100%" height="100%" viewBox="0 0 300 300" version="1.1" xmlns="http://www.w3.org/2000/svg" xmlns:xlink="http://www.w3.org/1999/xlink" xml:space="preserve" xmlns:serif="http://www.serif.com/" style="fill-rule:evenodd;clip-rule:evenodd;stroke-linejoin:round;stroke-miterlimit:2;"><g transform="matrix(96,0,0,96,155.793427,167.071611)"><path d="M-0.01,-0l0.53,-0l0,-0.334c-0.088,0.023 -0.176,0.042 -0.268,0.045c0.054,-0.109 0.13,-0.146 0.226,-0.116l0,-0.017c-0.043,-0.021 -0.085,-0.042 -0.124,-0.052c-0.065,-0.016 -0.121,0.028 -0.121,0.093l0,0.091l-0.243,0l0,0.29Z" style="fill:#f1e9db;fill-rule:nonzero;"/></g><g transform="matrix(96,0,0,96,155.793427,167.071611)"></g><g transform="matrix(96,0,0,96,206.673427,167.071611)"></g><g transform="matrix(96,0,0,96,131.855667,167.071611)"><path d="M0.01,0.2c0.101,-0.055 0.161,-0.11 0.217,-0.2l0.016,-0l0,-0.29l-0.072,0l-0.024,-0.115l-0.043,0.03l0.025,0.095c0.019,0.073 -0.003,0.124 -0.068,0.161l-0.051,0.029l-0,0.29Z" style="fill:#f1e9db;fill-rule:nonzero;"/></g><g transform="matrix(96,0,0,96,131.855667,167.071611)"></g><g transform="matrix(96,0,0,96,154.415667,167.071611)"></g><g transform="matrix(96,0,0,96,138.387623,172.41019)"><path d="M0.017,-0.638c0.006,0 0.014,0 0.024,-0.004c0.01,-0.002 0.018,-0.01 0.024,-0.02c0.02,0.03 0.072,0.032 0.092,0.008c0.009,-0.009 0.014,-0.028 0.014,-0.052l0,-0.042l-0.038,0l0,0.02c0,0.018 -0.002,0.03 -0.024,0.03c-0.018,0 -0.024,-0.01 -0.024,-0.032l0,-0.018l-0.04,0l0,0.018c0,0.024 -0.008,0.034 -0.026,0.034c-0.016,0 -0.024,-0.012 -0.024,-0.034l0,-0.018l-0.038,0c0,0.054 -0.008,0.11 0.06,0.11Zm-0.052,0.082l0.202,-0.03l0,-0.038l-0.202,0.03l0,0.038Z" style="fill:#f1e9db;fill-rule:nonzero;"/></g><g transform="matrix(96,0,0,96,138.387623,172.41019)"></g><g transform="matrix(96,0,0,96,138.387623,172.41019)"></g><g transform="matrix(96,0,0,96,138.387623,172.41019)"></g><g transform="matrix(96,0,0,96,66.257176,167.071611)"><path d="M0.322,0.176l0.086,-0.088l-0.086,-0.088l-0.088,0.088l0.088,0.088Zm-0.332,-0.176l0.667,-0l0,-0.323c0,-0.038 -0.014,-0.074 -0.026,-0.112l-0.043,0.009c0.014,0.045 0.029,0.093 0.036,0.136l-0.634,0l0,0.29Z" style="fill:#f1e9db;fill-rule:nonzero;"/></g><g transform="matrix(96,0,0,96,66.257176,167.071611)"></g><g transform="matrix(96,0,0,96,130.289176,167.071611)"></g><g transform="matrix(96,0,0,96,182.80432,172.41019)"></g><text x="182.804px" y="172.41px" style="font-family:'KORubbamaExpanded-BlackExpanded', 'KO Rubbama Expanded';font-weight:700;font-stretch:expanded;font-size:96px;fill:#f1e9db;">َ</text></svg>